<svg width="331" height="186" viewBox="0 0 331 186" fill="none" xmlns="http://www.w3.org/2000/svg">
  <style>
    @media (prefers-color-scheme: light){
    #Birthday{
    fill:#7364e4;
    }
    }

  </style>
  <g id="logo">
    <path id="Math"
      d="M16.8201 112C15.8655 112 15.054 111.714 14.3858 111.141C13.813 110.568 13.5266 109.804 13.5266 108.85V15.0568C13.5266 14.0067 13.813 13.1953 14.3858 12.6225C15.054 12.0497 15.8655 11.7633 16.8201 11.7633H20.4C21.3546 11.7633 22.0706 12.002 22.5479 12.4793C23.0252 12.9566 23.3116 13.3384 23.4071 13.6248L55.9124 76.9172L88.561 13.6248C88.7519 13.3384 89.0383 12.9566 89.4201 12.4793C89.8974 12.002 90.6134 11.7633 91.5681 11.7633H95.0047C96.0548 11.7633 96.8663 12.0497 97.4391 12.6225C98.0118 13.1953 98.2982 14.0067 98.2982 15.0568V108.85C98.2982 109.804 98.0118 110.568 97.4391 111.141C96.8663 111.714 96.0548 112 95.0047 112H92.4272C91.4726 112 90.7089 111.714 90.1361 111.141C89.5633 110.568 89.2769 109.804 89.2769 108.85V31.2379L61.9266 85.0793C61.5448 86.0339 60.972 86.7499 60.2083 87.2272C59.54 87.7045 58.6331 87.9432 57.4876 87.9432H54.3373C53.1917 87.9432 52.2848 87.7045 51.6166 87.2272C50.9483 86.7499 50.3755 86.0339 49.8982 85.0793L22.5479 31.2379V108.85C22.5479 109.804 22.2615 110.568 21.6888 111.141C21.116 111.714 20.3523 112 19.3976 112H16.8201ZM143.444 113.432C138.862 113.432 134.614 112.477 130.7 110.568C126.881 108.659 123.778 106.129 121.392 102.979C119.005 99.7329 117.812 96.1053 117.812 92.0959C117.812 85.6043 120.437 80.4016 125.688 76.4876C130.938 72.5736 137.764 70.0438 146.165 68.8982L168.789 65.7479V60.7361C168.789 55.6765 167.214 51.7148 164.064 48.8509C161.009 45.8915 156.093 44.4118 149.315 44.4118C144.351 44.4118 140.341 45.4142 137.287 47.4189C134.232 49.3282 132.131 51.858 130.986 55.0083C130.509 56.4402 129.602 57.1562 128.265 57.1562H125.974C124.829 57.1562 124.017 56.8698 123.54 56.297C123.062 55.6288 122.824 54.8651 122.824 54.0059C122.824 52.6694 123.301 50.9988 124.256 48.9941C125.306 46.9893 126.881 45.0323 128.981 43.1231C131.081 41.1183 133.802 39.4477 137.143 38.1112C140.485 36.7747 144.542 36.1065 149.315 36.1065C154.947 36.1065 159.577 36.8702 163.205 38.3976C166.928 39.925 169.792 41.9298 171.797 44.4118C173.897 46.7984 175.376 49.4714 176.236 52.4308C177.095 55.3901 177.524 58.3018 177.524 61.1657V108.85C177.524 109.804 177.238 110.568 176.665 111.141C176.092 111.714 175.329 112 174.374 112H171.94C170.985 112 170.221 111.714 169.649 111.141C169.076 110.568 168.789 109.804 168.789 108.85V102.12C167.644 103.838 166.021 105.556 163.921 107.275C161.821 108.993 159.1 110.473 155.759 111.714C152.513 112.859 148.408 113.432 143.444 113.432ZM144.876 105.127C149.267 105.127 153.277 104.172 156.904 102.263C160.532 100.353 163.396 97.4418 165.496 93.5278C167.692 89.5183 168.789 84.5065 168.789 78.4923V73.6237L150.317 76.2012C142.489 77.2513 136.571 79.0651 132.561 81.6426C128.552 84.2201 126.547 87.4659 126.547 91.3799C126.547 94.5302 127.454 97.1077 129.268 99.1124C131.081 101.117 133.373 102.645 136.141 103.695C139.005 104.649 141.916 105.127 144.876 105.127ZM224.528 112C219.564 112 215.65 110.95 212.786 108.85C209.922 106.75 207.918 103.886 206.772 100.258C205.626 96.6304 205.054 92.5732 205.054 88.0864V45.8438H193.884C192.93 45.8438 192.166 45.5574 191.593 44.9846C191.021 44.4118 190.734 43.6481 190.734 42.6935V40.6887C190.734 39.7341 191.021 38.9704 191.593 38.3976C192.166 37.8248 192.93 37.5384 193.884 37.5384H205.054V13.4816C205.054 12.527 205.34 11.7633 205.913 11.1905C206.486 10.6177 207.249 10.3313 208.204 10.3313H210.638C211.593 10.3313 212.357 10.6177 212.929 11.1905C213.502 11.7633 213.789 12.527 213.789 13.4816V37.5384H231.545C232.499 37.5384 233.263 37.8248 233.836 38.3976C234.409 38.9704 234.695 39.7341 234.695 40.6887V42.6935C234.695 43.6481 234.409 44.4118 233.836 44.9846C233.263 45.5574 232.499 45.8438 231.545 45.8438H213.789V87.5136C213.789 92.5732 214.6 96.5349 216.223 99.3988C217.941 102.263 220.948 103.695 225.244 103.695H232.977C233.931 103.695 234.695 103.981 235.268 104.554C235.841 105.127 236.127 105.89 236.127 106.845V108.85C236.127 109.804 235.841 110.568 235.268 111.141C234.695 111.714 233.931 112 232.977 112H224.528ZM254.223 112C253.269 112 252.505 111.714 251.932 111.141C251.359 110.568 251.073 109.804 251.073 108.85V13.4816C251.073 12.527 251.359 11.7633 251.932 11.1905C252.505 10.6177 253.269 10.3313 254.223 10.3313H256.658C257.612 10.3313 258.376 10.6177 258.949 11.1905C259.522 11.7633 259.808 12.527 259.808 13.4816V47.4189C262.385 44.0777 265.488 41.357 269.116 39.2568C272.839 37.1566 277.755 36.1065 283.865 36.1065C290.356 36.1065 295.75 37.5385 300.046 40.4024C304.437 43.1708 307.683 46.9893 309.783 51.858C311.979 56.6312 313.077 62.0726 313.077 68.1822V108.85C313.077 109.804 312.79 110.568 312.217 111.141C311.645 111.714 310.881 112 309.926 112H307.492C306.537 112 305.774 111.714 305.201 111.141C304.628 110.568 304.342 109.804 304.342 108.85V68.8982C304.342 61.2611 302.48 55.2947 298.757 50.9988C295.034 46.6075 289.593 44.4118 282.433 44.4118C275.655 44.4118 270.166 46.6075 265.965 50.9988C261.86 55.2947 259.808 61.2611 259.808 68.8982V108.85C259.808 109.804 259.522 110.568 258.949 111.141C258.376 111.714 257.612 112 256.658 112H254.223Z"
      fill="white" />
    <path id="Birthday"
      d="M54.4646 133.519C54.4646 136.927 52.5683 140.28 48.7758 143.578C45.0383 146.875 40.4763 149.514 35.0898 151.492C29.7583 153.416 24.6741 154.378 19.8373 154.378C17.7487 154.378 15.3028 153.114 12.4997 150.586C9.6965 148.002 8.29492 145.886 8.29492 144.237C8.29492 143.303 8.48729 142.561 8.87204 142.011C9.31175 141.462 9.80643 141.187 10.3561 141.187C10.9057 141.187 12.1149 141.654 13.9837 142.588C15.9074 143.468 17.3365 143.907 18.2709 143.907C19.2602 143.907 20.2221 143.825 21.1565 143.66C19.7824 143.11 18.4083 142.149 17.0342 140.775C15.6601 139.4 14.973 138.081 14.973 136.817C14.973 136.267 15.8799 132.283 17.6937 124.862C19.5075 117.387 20.4694 111.012 20.5793 105.735C19.59 104.801 18.6831 103.674 17.8586 102.355C17.0891 100.981 16.7044 99.9638 16.7044 99.3043C16.7044 97.7653 17.9136 96.5286 20.332 95.5942C22.7504 94.6598 25.7734 94.1926 29.401 94.1926C37.096 94.1926 43.2519 95.2095 47.8689 97.2431C52.5408 99.2768 54.8768 102.52 54.8768 106.972C54.8768 109.775 53.6951 112.633 51.3316 115.546C48.9682 118.459 45.8627 121.125 42.0152 123.543L42.8397 123.791C46.1375 124.67 48.8857 125.989 51.0843 127.748C53.3378 129.452 54.4646 131.376 54.4646 133.519ZM39.8717 104.746C38.1678 104.746 34.1554 105.35 27.8346 106.56C29.8133 108.758 30.8026 110.599 30.8026 112.083C30.8026 113.512 30.3354 116.178 29.401 120.081C30.2805 119.421 31.8469 118.459 34.1004 117.195C36.354 115.931 37.7555 115.106 38.3052 114.722C38.9098 114.282 39.7068 113.65 40.6961 112.825C42.5649 111.341 43.4993 109.637 43.4993 107.714C43.4993 105.735 42.2901 104.746 39.8717 104.746ZM44.0764 133.189C44.0764 132.09 42.4824 131.156 39.2945 130.386C36.1616 129.562 33.5508 129.15 31.4622 129.15C30.3079 129.15 29.0713 128.298 27.7521 126.594C25.2787 136.762 23.7947 142.341 23.3 143.33C27.917 142.341 32.534 140.829 37.1509 138.796C41.7679 136.762 44.0764 134.893 44.0764 133.189ZM69.4716 101.118C69.4716 99.689 70.1037 98.2325 71.3679 96.7485C72.687 95.2095 73.9512 94.44 75.1604 94.44C76.4245 94.44 77.9086 95.924 79.6124 98.8921C81.3163 101.86 82.1683 104.031 82.1683 105.405C82.1683 106.724 81.7286 107.741 80.8491 108.456C79.9697 109.17 79.0628 109.528 78.1284 109.528C76.5345 109.528 74.6932 108.483 72.6046 106.395C70.5159 104.306 69.4716 102.547 69.4716 101.118ZM70.7083 111.424C72.632 111.424 74.3359 112.523 75.8199 114.722C77.3589 116.92 78.1284 119.036 78.1284 121.07C78.1284 122.114 77.1666 125.879 75.2428 132.365C73.374 138.796 71.5053 144.897 69.6365 150.668C68.9769 152.812 67.6303 153.883 65.5967 153.883C64.3875 153.883 63.3157 153.444 62.3813 152.564C61.5019 151.63 61.0621 150.448 61.0621 149.019C61.0621 147.535 61.7492 143.907 63.1233 138.136C64.5523 132.31 65.6241 127.363 66.3387 123.296C67.1082 119.174 67.7952 116.178 68.3998 114.309C69.0594 112.386 69.8289 111.424 70.7083 111.424ZM87.343 125.357L86.8483 116.041C86.8483 112.963 87.8102 111.424 89.7339 111.424C90.8332 111.424 91.905 111.836 92.9493 112.66C94.0486 113.485 94.8731 114.777 95.4227 116.535C97.2915 114.887 99.3251 113.567 101.524 112.578C103.777 111.534 105.756 111.012 107.46 111.012C111.472 111.012 113.478 111.973 113.478 113.897C113.478 114.887 113.286 115.629 112.901 116.123C112.571 116.563 112.297 116.893 112.077 117.113C111.912 117.332 111.582 117.635 111.087 118.019C110.648 118.349 110.318 118.597 110.098 118.761C108.834 119.586 107.927 120.163 107.377 120.493C104.904 122.032 102.788 123.901 101.029 126.099C99.2702 128.243 97.951 131.238 97.0716 135.086C95.5876 141.407 94.1311 146.133 92.702 149.266C91.3279 152.344 89.7614 153.883 88.0026 153.883C86.2987 153.883 85.0071 153.059 84.1276 151.41C83.3032 149.761 82.891 148.222 82.891 146.793C82.891 145.309 83.4131 143.11 84.4574 140.197C85.5567 137.284 86.2987 134.783 86.6835 132.695C87.1232 130.551 87.343 128.105 87.343 125.357ZM134.032 121.235C133.593 122.719 132.933 124.808 132.054 127.501C131.229 130.139 130.185 133.464 128.921 137.477C127.712 141.489 127.107 143.633 127.107 143.907C127.107 144.127 127.547 144.237 128.426 144.237C129.361 144.237 131.532 143.633 134.939 142.423C138.347 141.159 140.353 140.527 140.958 140.527C142.332 140.527 143.019 141.462 143.019 143.33C143.019 145.199 141.178 147.453 137.495 150.091C133.813 152.674 129.965 153.966 125.953 153.966C124.194 153.966 122.105 153.004 119.687 151.08C117.268 149.156 116.059 147.205 116.059 145.227C116.059 143.578 116.884 140.115 118.533 134.838C120.237 129.507 121.391 125.852 121.995 123.873C119.852 124.478 118.23 124.78 117.131 124.78C116.032 124.78 114.878 124.038 113.668 122.554C112.459 121.015 111.855 119.558 111.855 118.184C111.855 116.426 116.114 114.941 124.634 113.732C125.678 108.621 126.2 104.196 126.2 100.459C126.2 98.8096 127.025 97.9851 128.673 97.9851C130.103 97.9851 131.916 98.8646 134.115 100.623C136.368 102.327 137.495 104.031 137.495 105.735C137.495 107.384 137.138 109.72 136.423 112.743C139.062 112.633 141.068 112.578 142.442 112.578C146.564 112.578 148.625 113.512 148.625 115.381C148.625 116.59 147.416 117.635 144.998 118.514C142.634 119.339 138.979 120.246 134.032 121.235ZM160.182 91.8017C160.182 89.4932 161.089 88.339 162.903 88.339C164.387 88.339 166.091 89.5757 168.014 92.0491C169.938 94.5224 170.9 96.6385 170.9 98.3974C170.9 100.156 170.543 102.63 169.828 105.817C169.114 109.005 168.372 111.918 167.602 114.557C166.888 117.195 165.788 120.96 164.304 125.852C162.82 130.689 161.803 134.069 161.254 135.993C164.826 128.737 168.591 122.829 172.549 118.267C176.561 113.705 179.914 111.424 182.607 111.424C184.311 111.424 186.262 112.935 188.461 115.958C190.659 118.926 191.759 121.62 191.759 124.038C191.759 126.401 191.319 129.864 190.44 134.426C189.56 138.988 188.021 143.385 185.823 147.618C183.624 151.85 181.37 153.966 179.062 153.966C177.248 153.966 176.341 152.674 176.341 150.091C176.341 148.222 176.891 145.172 177.99 140.939C179.584 134.619 180.381 130.771 180.381 129.397C180.381 128.023 180.161 127.336 179.722 127.336C176.534 127.336 171.862 132.64 165.706 143.248C163.617 146.875 161.858 149.569 160.429 151.328C159.055 153.086 157.736 153.966 156.472 153.966C155.208 153.966 153.669 152.949 151.855 150.915C150.096 148.882 149.217 147.315 149.217 146.216C149.217 145.062 149.436 143.385 149.876 141.187C150.371 138.988 151.085 135.855 152.02 131.788C153.009 127.721 154.603 120.355 156.802 109.692C159.055 98.9745 160.182 93.0109 160.182 91.8017ZM231.537 88.339C232.856 88.339 234.587 89.5482 236.731 91.9666C238.874 94.3301 239.946 96.5561 239.946 98.6447C239.946 99.689 238.984 104.031 237.061 111.671C235.137 119.311 233.983 123.928 233.598 125.522C229.201 144.485 225.985 153.966 223.952 153.966C222.798 153.966 221.506 153.279 220.077 151.905C218.648 150.531 217.933 149.184 217.933 147.865C217.933 147.59 217.961 147.37 218.016 147.205C212.519 151.712 208.562 153.966 206.144 153.966C203.78 153.966 201.472 152.702 199.218 150.173C197.02 147.59 195.92 145.254 195.92 143.165C195.92 141.077 196.195 138.768 196.745 136.24C197.349 133.657 198.256 130.936 199.465 128.078C200.675 125.22 202.049 122.554 203.588 120.081C205.182 117.552 207.078 115.491 209.276 113.897C211.53 112.248 213.838 111.424 216.202 111.424C219.72 111.424 222.605 113.21 224.859 116.783C227.827 103.756 229.256 95.0995 229.146 90.8124C229.146 89.1634 229.943 88.339 231.537 88.339ZM207.215 143.495C208.589 143.495 210.898 142.313 214.141 139.95C217.439 137.587 219.884 134.591 221.478 130.963C221.423 130.524 221.396 129.562 221.396 128.078C221.396 126.594 220.901 125.192 219.912 123.873C218.923 122.554 218.016 121.894 217.191 121.894C215.542 121.894 213.948 122.774 212.409 124.533C210.925 126.292 209.744 128.38 208.864 130.799C206.995 135.91 206.061 139.785 206.061 142.423C206.061 142.863 206.116 143.165 206.226 143.33C206.391 143.44 206.721 143.495 207.215 143.495ZM275.815 130.551C276.805 131.431 277.299 132.228 277.299 132.942C277.299 133.657 276.97 135.141 276.31 137.394C275.65 139.648 275.211 141.407 274.991 142.671C274.771 143.88 274.579 144.842 274.414 145.556C274.304 146.271 274.221 146.848 274.166 147.288C274.111 147.672 274.002 148.167 273.837 148.772C273.727 149.376 273.617 149.871 273.507 150.256C273.452 150.586 273.342 150.998 273.177 151.492C273.067 151.932 272.93 152.289 272.765 152.564C272.6 152.784 272.408 153.031 272.188 153.306C271.858 153.746 271.308 153.966 270.539 153.966C269.769 153.966 268.807 153.196 267.653 151.657C266.554 150.118 265.729 148.25 265.18 146.051C260.013 151.328 255.671 153.966 252.153 153.966C249.79 153.966 247.234 152.674 244.486 150.091C241.738 147.453 240.364 144.842 240.364 142.259C240.364 139.62 241.545 135.883 243.909 131.046C246.272 126.209 249.488 121.73 253.555 117.607C257.677 113.485 261.745 111.424 265.757 111.424C268.065 111.424 270.731 112.77 273.754 115.464C276.777 118.157 278.289 120.63 278.289 122.884C278.289 125.082 277.464 127.638 275.815 130.551ZM251.824 143.578C254.022 143.578 256.935 142.094 260.563 139.126C264.245 136.103 266.526 132.31 267.406 127.748C267.461 127.089 267.928 126.704 268.807 126.594C268.643 123.461 268.12 121.894 267.241 121.894C265.042 121.894 262.569 123.323 259.821 126.182C257.128 129.04 254.902 132.09 253.143 135.333C251.439 138.576 250.587 140.967 250.587 142.506C250.587 142.946 250.642 143.248 250.752 143.413C250.917 143.523 251.274 143.578 251.824 143.578ZM313.556 113.485C313.886 112.111 314.793 111.424 316.277 111.424C317.761 111.424 319.272 112.358 320.811 114.227C322.405 116.096 323.202 118.212 323.202 120.575C323.202 121.949 322.708 124.12 321.718 127.089C320.729 130.057 320.014 132.173 319.575 133.437C319.19 134.701 318.613 136.432 317.843 138.631C317.074 140.775 316.359 142.781 315.7 144.649C315.095 146.463 314.243 148.909 313.144 151.987C312.1 155.065 311.138 157.923 310.258 160.561C308.554 165.508 306.466 169.328 303.992 172.021C301.574 174.715 298.414 176.061 294.511 176.061C290.609 176.061 287.119 175.017 284.041 172.928C280.963 170.895 279.424 168.834 279.424 166.745C279.424 165.481 279.973 164.079 281.073 162.54C282.227 161.001 283.189 160.232 283.958 160.232C284.783 160.232 285.827 160.864 287.091 162.128C288.41 163.447 289.757 164.739 291.131 166.003C292.505 167.322 293.714 167.982 294.759 167.982C295.473 167.982 296.05 167.652 296.49 166.992C296.985 166.333 297.369 165.728 297.644 165.178C297.974 164.684 298.304 163.969 298.634 163.035C298.963 162.155 299.266 161.331 299.54 160.561C299.815 159.792 300.145 158.775 300.53 157.511C300.914 156.247 301.244 155.12 301.519 154.131C302.453 151.163 303.25 148.524 303.91 146.216C302.096 148.579 300.227 150.476 298.304 151.905C296.38 153.279 294.594 153.966 292.945 153.966C291.351 153.966 289.345 152.757 286.926 150.338C284.563 147.865 283.381 145.172 283.381 142.259C283.381 139.29 284.013 135.333 285.277 130.386C286.596 125.44 288.218 121.042 290.142 117.195C292.065 113.348 293.769 111.424 295.253 111.424C296.957 111.424 298.551 112.166 300.035 113.65C301.574 115.079 302.344 116.48 302.344 117.855C302.344 119.174 301.657 121.317 300.282 124.285C298.963 127.253 297.617 130.496 296.243 134.014C294.868 137.532 294.181 140.527 294.181 143.001C294.181 143.33 294.319 143.495 294.594 143.495C295.308 143.495 296.82 142.176 299.128 139.538C301.437 136.845 304.02 133.052 306.878 128.16C309.791 123.214 312.017 118.322 313.556 113.485Z"
      fill="#FEA73E" />
  </g>
</svg>