<svg width="820" height="820" viewBox="0 0 820 820" fill="none" xmlns="http://www.w3.org/2000/svg">
<g id="picture">
<g id="cake">
<g id="candle4">
<g id="g18">
<path id="path20" d="M551.971 212.961L564.142 215.855C566.234 216.353 568.334 215.06 568.831 212.966L602.708 70.4554C603.206 68.3669 601.913 66.2625 599.82 65.7695L587.649 62.8754C585.557 62.3771 583.458 63.6705 582.96 65.7643L549.083 208.275C548.586 210.364 549.878 212.468 551.971 212.961Z" fill="#8CD8F9"/>
</g>
<g id="g22">
<path id="path24" d="M580.804 74.8268L601.841 74.1052L598.304 88.9811L577.268 89.7027L580.804 74.8268Z" fill="#FDFEFE"/>
</g>
<g id="g26">
<path id="path28" d="M574.149 102.827L595.185 102.104L591.649 116.976L570.613 117.7L574.149 102.827Z" fill="#FDFEFE"/>
</g>
<g id="g30">
<path id="path32" d="M567.493 130.825L588.529 130.102L584.994 144.978L563.958 145.696L567.493 130.825Z" fill="#FDFEFE"/>
</g>
<g id="g34">
<path id="path36" d="M560.839 158.822L581.875 158.101L578.339 172.976L557.303 173.698L560.839 158.822Z" fill="#FDFEFE"/>
</g>
<g id="g38">
<path id="path40" d="M554.183 186.822L575.219 186.099L571.684 200.974L550.647 201.696L554.183 186.822Z" fill="#FDFEFE"/>
</g>
<g id="g42">
<path id="path44" d="M595.245 64.5698C595.245 64.5698 609.205 62.914 603.02 35.6675C603.02 35.6675 573.718 53.351 595.245 64.5698Z" fill="#FCE965"/>
</g>
<g id="g46">
<path id="path48" d="M595.2 64.7772C595.2 64.7772 601.935 63.1514 600.087 45.997C600.087 45.997 585.372 58.4793 595.2 64.7772Z" fill="#F9C170"/>
</g>
</g>
<g id="candle1">
<g id="g18_2">
<path id="path20_2" d="M419.759 216.963L431.757 217.365C433.82 217.435 435.42 215.739 435.33 213.576L429.284 66.3876C429.196 64.2304 427.451 62.4176 425.39 62.353L413.393 61.951C411.33 61.8812 409.73 63.5776 409.819 65.7401L415.865 212.929C415.953 215.086 417.698 216.899 419.759 216.963Z" fill="#8CD8F9"/>
</g>
<g id="g22_2">
<path id="path24_2" d="M411.428 75.1969L431.277 70.0227L431.95 86.008L412.101 91.182L411.428 75.1969Z" fill="#FDFEFE"/>
</g>
<g id="g26_2">
<path id="path28_2" d="M411.86 103.974L431.708 98.7982L432.381 114.78L412.533 119.956L411.86 103.974Z" fill="#FDFEFE"/>
</g>
<g id="g30_2">
<path id="path32_2" d="M412.291 132.75L432.139 127.574L432.813 143.559L412.963 148.729L412.291 132.75Z" fill="#FDFEFE"/>
</g>
<g id="g34_2">
<path id="path36_2" d="M412.724 161.522L432.572 156.349L433.246 172.334L413.397 177.508L412.724 161.522Z" fill="#FDFEFE"/>
</g>
<g id="g38_2">
<path id="path40_2" d="M413.155 190.299L433.004 185.124L433.676 201.108L413.828 206.282L413.155 190.299Z" fill="#FDFEFE"/>
</g>
<g id="g42_2">
<path id="path44_2" d="M423.264 62.7263C423.264 62.7263 435.877 58.223 422.838 32.4097C422.838 32.4097 400.148 55.9828 423.264 62.7263Z" fill="#FCE965"/>
</g>
<g id="g46_2">
<path id="path48_2" d="M423.16 62.7583C423.16 62.7583 428.989 59.7833 422.74 43.1944C422.74 43.1944 412.364 58.5251 423.16 62.7583Z" fill="#F9C170"/>
</g>
</g>
<g id="candle2">
<g id="g50">
<path id="path52" d="M499.217 201.785L511.515 199.494C513.629 199.1 515.023 197.067 514.629 194.948L487.761 50.9556C487.366 48.8364 485.333 47.4452 483.217 47.8388L470.919 50.136C468.806 50.5297 467.413 52.5625 467.806 54.6763L494.675 198.674C495.069 200.788 497.103 202.184 499.217 201.785Z" fill="#8CD8F9"/>
</g>
<g id="g54">
<path id="path56" d="M469.516 63.8358L488.449 54.6423L491.253 69.6707L472.319 78.8696L469.516 63.8358Z" fill="#FDFEFE"/>
</g>
<g id="g58">
<path id="path60" d="M474.793 92.1271L493.727 82.9318L496.532 97.959L477.6 107.154L474.793 92.1271Z" fill="#FDFEFE"/>
</g>
<g id="g62">
<path id="path64" d="M480.073 120.418L499.006 111.221L501.81 126.249L482.877 135.446L480.073 120.418Z" fill="#FDFEFE"/>
</g>
<g id="g66">
<path id="path68" d="M485.351 148.707L504.284 139.51L507.089 154.538L488.155 163.735L485.351 148.707Z" fill="#FDFEFE"/>
</g>
<g id="g70">
<path id="path72" d="M490.629 176.996L509.562 167.799L512.366 182.827L493.433 192.023L490.629 176.996Z" fill="#FDFEFE"/>
</g>
<g id="g74">
<path id="path76" d="M478.548 48.6C478.548 48.6 490.638 41.4246 473.928 19.0298C473.928 19.0298 454.321 47.0803 478.548 48.6Z" fill="#FCE965"/>
</g>
<g id="g78">
<path id="path80" d="M478.59 48.8058C478.59 48.8058 484.089 44.5862 475.437 29.6607C475.437 29.6607 467.054 47.0399 478.59 48.8058Z" fill="#F9C170"/>
</g>
</g>
<g id="candle3">
<g id="g82">
<path id="path84" d="M355.112 200.152L367.588 201.075C369.735 201.237 371.6 199.628 371.761 197.479L382.568 51.3997C382.725 49.2504 381.117 47.3873 378.973 47.2253L366.494 46.3018C364.351 46.1452 362.483 47.7545 362.325 49.8984L351.515 195.983C351.356 198.127 352.968 199.995 355.112 200.152Z" fill="#8CD8F9"/>
</g>
<g id="g86">
<path id="path88" d="M361.639 59.1932L382.293 55.1416L381.165 70.3859L360.512 74.4429L361.639 59.1932Z" fill="#FDFEFE"/>
</g>
<g id="g90">
<path id="path92" d="M359.513 87.8893L380.166 83.8367L379.039 99.0856L358.386 103.138L359.513 87.8893Z" fill="#FDFEFE"/>
</g>
<g id="g94">
<path id="path96" d="M357.39 116.592L378.044 112.538L376.917 127.786L356.263 131.841L357.39 116.592Z" fill="#FDFEFE"/>
</g>
<g id="g98">
<path id="path100" d="M355.268 145.294L375.921 141.238L374.794 156.484L354.14 160.54L355.268 145.294Z" fill="#FDFEFE"/>
</g>
<g id="g102">
<path id="path104" d="M353.143 173.995L373.798 169.939L372.671 185.184L352.016 189.24L353.143 173.995Z" fill="#FDFEFE"/>
</g>
<g id="g106">
<path id="path108" d="M374.265 46.7704C374.265 46.7704 387.784 42.9208 377.348 17.0001C377.348 17.0001 351.229 39.1102 374.265 46.7704Z" fill="#FCE965"/>
</g>
<g id="g110">
<path id="path112" d="M374.252 46.9786C374.252 46.9786 380.643 44.3045 376.093 27.6641C376.093 27.6641 363.55 42.3251 374.252 46.9786Z" fill="#F9C170"/>
</g>
</g>
<g id="candle5">
<g id="g114">
<path id="path116" d="M261.649 200.557L273.973 198.391C276.09 198.018 277.5 195.998 277.133 193.881L251.755 49.6114C251.382 47.4943 249.362 46.0794 247.245 46.452L234.926 48.6177C232.809 48.9903 231.388 51.0102 231.761 53.1273L257.139 197.397C257.512 199.514 259.532 200.929 261.649 200.557Z" fill="#8CD8F9"/>
</g>
<g id="g118">
<path id="path120" d="M233.379 62.3083L252.405 53.3096L255.051 68.3664L236.025 77.3651L233.379 62.3083Z" fill="#FDFEFE"/>
</g>
<g id="g122">
<path id="path124" d="M238.362 90.65L257.388 81.648L260.036 96.7032L241.011 105.705L238.362 90.65Z" fill="#FDFEFE"/>
</g>
<g id="g126">
<path id="path128" d="M243.348 118.993L262.376 109.992L265.026 125.048L245.998 134.049L243.348 118.993Z" fill="#FDFEFE"/>
</g>
<g id="g130">
<path id="path132" d="M248.334 147.334L267.363 138.336L270.013 153.392L250.983 162.394L248.334 147.334Z" fill="#FDFEFE"/>
</g>
<g id="g134">
<path id="path136" d="M253.321 175.681L272.347 166.681L274.999 181.735L255.969 190.735L253.321 175.681Z" fill="#FDFEFE"/>
</g>
<g id="g138">
<path id="path140" d="M242.57 47.1672C242.57 47.1672 254.731 40.1139 238.254 17.5487C238.254 17.5487 218.354 45.3941 242.57 47.1672Z" fill="#FCE965"/>
</g>
<g id="g142">
<path id="path144" d="M242.606 47.3672C242.606 47.3672 248.144 43.2068 239.653 28.1908C239.653 28.1908 231.089 45.4827 242.606 47.3672Z" fill="#F9C170"/>
</g>
</g>
<g id="floor2">
<g id="g146">
<path id="path148" d="M152.729 471.847L666.872 487.725C669.828 487.816 672.298 485.494 672.389 482.539L680.417 222.617C680.508 219.663 678.187 217.193 675.23 217.1L161.085 201.224C158.13 201.13 155.661 203.453 155.568 206.407L147.541 466.33C147.447 469.284 149.77 471.758 152.729 471.847Z" fill="#D3AB72"/>
</g>
<g id="g150">
<path id="path152" d="M153.151 458.178L667.294 474.059C670.25 474.148 672.72 471.825 672.812 468.871L680.417 222.617C680.508 219.663 678.187 217.193 675.23 217.1L161.085 201.224C158.13 201.13 155.661 203.453 155.567 206.408L147.963 452.661C147.874 455.616 150.197 458.085 153.151 458.178Z" fill="#834D42"/>
</g>
<g id="g154">
<path id="path156" d="M147.164 412.846L678.804 429.269C679.192 429.281 679.517 428.979 679.529 428.586L680.709 390.356C680.722 389.967 680.417 389.644 680.028 389.632L148.388 373.214C148 373.197 147.673 373.507 147.665 373.892L146.481 412.123C146.469 412.515 146.775 412.838 147.164 412.846Z" fill="#E4C28A"/>
</g>
<g id="g158">
<path id="path160" d="M674.05 340.194C640.176 372.041 651.812 262.895 588.94 260.951C526.067 259.011 574.797 364.49 506.458 362.382C438.117 360.27 485.232 252.278 438.764 250.843C392.29 249.407 448.799 368.811 358.592 366.021C268.382 363.236 337.449 253.187 290.979 251.751C244.509 250.316 293.864 424.217 258.156 428.587C222.452 432.958 258.174 250.738 211.708 249.302C165.238 247.867 176.536 324.83 154.671 324.153C132.801 323.476 109.686 185.955 197.243 185.923C284.805 185.891 601.985 192.951 653.922 194.555C705.86 196.158 710.684 305.754 674.05 340.194Z" fill="#ED7FA4"/>
</g>
<g id="g162">
<path id="path164" d="M597.062 322.766C596.961 326.034 599.531 328.768 602.802 328.869C606.073 328.97 608.807 326.405 608.908 323.133C609.009 319.861 606.439 317.128 603.168 317.027C599.897 316.926 597.163 319.495 597.062 322.766Z" fill="#D3AB72"/>
</g>
<g id="g166">
<path id="path168" d="M639.856 354.642C639.81 356.151 640.996 357.412 642.506 357.458C644.015 357.507 645.277 356.32 645.324 354.811C645.37 353.299 644.184 352.038 642.674 351.992C641.165 351.946 639.903 353.13 639.856 354.642Z" fill="#D3AB72"/>
</g>
<g id="g170">
<path id="path172" d="M614.134 360.688C614.064 362.953 615.843 364.847 618.107 364.917C620.372 364.987 622.265 363.205 622.334 360.943C622.404 358.682 620.625 356.784 618.361 356.717C616.096 356.647 614.203 358.423 614.134 360.688Z" fill="#D3AB72"/>
</g>
<path id="path174" d="M605.789 444.921C605.713 447.767 607.63 450.145 610.071 450.235C612.511 450.322 614.551 448.085 614.626 445.239C614.701 442.39 612.784 440.012 610.344 439.925C607.903 439.835 605.864 442.071 605.789 444.921Z" fill="#D3AB72"/>
<path id="path176" d="M579.263 448.675C579.213 450.301 580.491 451.66 582.118 451.71C583.745 451.762 585.104 450.485 585.155 448.856C585.205 447.23 583.927 445.868 582.3 445.818C580.673 445.768 579.314 447.046 579.263 448.675Z" fill="#D3AB72"/>
<g id="g178">
<path id="path180" d="M554.891 359.313C554.813 361.83 556.79 363.934 559.306 364.012C561.822 364.089 563.925 362.111 564.003 359.597C564.081 357.079 562.103 354.975 559.587 354.898C557.071 354.821 554.969 356.795 554.891 359.313Z" fill="#D3AB72"/>
</g>
<g id="g182">
<path id="path184" d="M450.581 340.589C450.534 342.095 451.722 343.359 453.231 343.406C454.74 343.452 456.004 342.265 456.05 340.755C456.094 339.246 454.91 337.983 453.397 337.936C451.891 337.892 450.628 339.077 450.581 340.589Z" fill="#D3AB72"/>
</g>
<g id="g186">
<path id="path188" d="M459.175 357.73C459.133 358.987 460.125 360.038 461.382 360.08C462.643 360.115 463.69 359.131 463.732 357.87C463.771 356.612 462.78 355.562 461.526 355.523C460.265 355.485 459.214 356.472 459.175 357.73Z" fill="#D3AB72"/>
</g>
<g id="g190">
<path id="path192" d="M434.693 294.042C434.622 296.307 436.402 298.2 438.667 298.271C440.932 298.341 442.823 296.56 442.894 294.296C442.965 292.031 441.185 290.138 438.92 290.068C436.655 289.997 434.763 291.778 434.693 294.042Z" fill="#D3AB72"/>
</g>
<g id="g194">
<path id="path196" d="M411.132 348.031C411.029 351.303 413.602 354.035 416.874 354.135C420.143 354.239 422.878 351.669 422.978 348.4C423.078 345.128 420.508 342.393 417.24 342.293C413.967 342.193 411.233 344.759 411.132 348.031Z" fill="#D3AB72"/>
</g>
<path id="path198" d="M452.535 441.973C452.46 444.823 454.377 447.201 456.818 447.288C459.257 447.378 461.295 445.141 461.372 442.292C461.446 439.446 459.53 437.068 457.091 436.978C454.65 436.891 452.612 439.127 452.535 441.973Z" fill="#D3AB72"/>
<path id="path200" d="M426.01 439.073C425.945 441.107 427.543 442.807 429.576 442.868C431.609 442.932 433.309 441.334 433.374 439.301C433.435 437.268 431.837 435.568 429.804 435.503C427.771 435.442 426.071 437.04 426.01 439.073Z" fill="#D3AB72"/>
<path id="path202" d="M290.44 439.694C290.315 443.761 293.507 447.161 297.577 447.287C301.643 447.412 305.043 444.216 305.169 440.15C305.295 436.08 302.099 432.684 298.029 432.558C293.963 432.432 290.563 435.625 290.44 439.694Z" fill="#D3AB72"/>
<g id="g204">
<path id="path206" d="M263.159 443.791C263.104 445.552 264.486 447.023 266.248 447.078C268.007 447.13 269.481 445.747 269.536 443.989C269.591 442.227 268.205 440.753 266.447 440.698C264.681 440.647 263.21 442.029 263.159 443.791Z" fill="#D3AB72"/>
</g>
<path id="path208" d="M536.529 446.438C536.466 448.471 538.064 450.171 540.097 450.236C542.131 450.297 543.831 448.699 543.894 446.666C543.956 444.633 542.359 442.933 540.325 442.871C538.291 442.807 536.592 444.405 536.529 446.438Z" fill="#D3AB72"/>
<path id="path210" d="M520.319 434.696C520.281 435.917 521.24 436.935 522.46 436.974C523.68 437.01 524.7 436.054 524.738 434.833C524.775 433.613 523.817 432.591 522.597 432.555C521.377 432.516 520.357 433.476 520.319 434.696Z" fill="#D3AB72"/>
<g id="g212">
<path id="path214" d="M294.918 360.405C294.809 363.926 297.575 366.872 301.097 366.981C304.622 367.086 307.568 364.319 307.673 360.798C307.782 357.276 305.015 354.331 301.494 354.225C297.969 354.113 295.026 356.883 294.918 360.405Z" fill="#D3AB72"/>
</g>
<g id="g216">
<path id="path218" d="M290.24 334.722C290.175 336.734 291.756 338.418 293.772 338.483C295.784 338.542 297.468 336.961 297.53 334.948C297.588 332.936 296.011 331.252 293.995 331.194C291.982 331.128 290.299 332.71 290.24 334.722Z" fill="#D3AB72"/>
</g>
<g id="g220">
<path id="path222" d="M288.1 285.861C288.045 287.626 289.431 289.095 291.193 289.151C292.954 289.202 294.423 287.82 294.482 286.059C294.533 284.301 293.151 282.824 291.39 282.773C289.629 282.718 288.156 284.1 288.1 285.861Z" fill="#D3AB72"/>
</g>
<g id="g224">
<path id="path226" d="M276.507 306.937C276.442 308.951 278.025 310.633 280.035 310.694C282.05 310.759 283.732 309.177 283.797 307.162C283.854 305.148 282.275 303.47 280.261 303.405C278.25 303.344 276.565 304.926 276.507 306.937Z" fill="#D3AB72"/>
</g>
<g id="g228">
<path id="path230" d="M218.374 299.218C218.32 300.977 219.704 302.447 221.464 302.505C223.227 302.559 224.696 301.174 224.751 299.411C224.805 297.652 223.42 296.178 221.661 296.124C219.901 296.07 218.428 297.454 218.374 299.218Z" fill="#D3AB72"/>
</g>
<g id="g232">
<path id="path234" d="M206.595 326.211C206.493 329.486 209.063 332.218 212.334 332.316C215.605 332.418 218.341 329.851 218.438 326.58C218.54 323.31 215.97 320.574 212.699 320.472C209.428 320.37 206.696 322.94 206.595 326.211Z" fill="#D3AB72"/>
</g>
<g id="g236">
<path id="path238" d="M186.125 339.258C186.086 340.519 187.071 341.567 188.333 341.609C189.59 341.648 190.638 340.659 190.681 339.402C190.716 338.14 189.731 337.093 188.473 337.05C187.215 337.015 186.164 338 186.125 339.258Z" fill="#D3AB72"/>
</g>
<g id="g240">
<path id="path242" d="M190.095 299.252C190.041 301.017 191.423 302.487 193.187 302.541C194.948 302.595 196.418 301.21 196.476 299.45C196.53 297.685 195.145 296.215 193.384 296.161C191.624 296.11 190.15 297.492 190.095 299.252Z" fill="#D3AB72"/>
</g>
<g id="g244">
<path id="path246" d="M215.192 431.826C215.143 433.331 216.332 434.594 217.841 434.642C219.349 434.687 220.612 433.502 220.66 431.993C220.701 430.481 219.52 429.218 218.008 429.173C216.499 429.125 215.236 430.314 215.192 431.826Z" fill="#D3AB72"/>
</g>
<g id="g248">
<path id="path250" d="M194.272 429.805C194.249 430.562 194.844 431.192 195.598 431.215C196.351 431.238 196.985 430.643 197.004 429.889C197.028 429.136 196.436 428.506 195.682 428.479C194.929 428.46 194.295 429.052 194.272 429.805Z" fill="#D3AB72"/>
</g>
<g id="g252">
<path id="path254" d="M200.229 443.672C200.206 444.426 200.8 445.057 201.558 445.084C202.311 445.107 202.94 444.509 202.962 443.755C202.985 443.002 202.395 442.37 201.641 442.347C200.884 442.324 200.252 442.918 200.229 443.672Z" fill="#D3AB72"/>
</g>
<path id="path256" d="M652.943 400.045C652.893 401.67 654.171 403.031 655.798 403.081C657.425 403.131 658.784 401.854 658.834 400.225C658.885 398.6 657.607 397.242 655.98 397.19C654.353 397.14 652.993 398.417 652.943 400.045Z" fill="#FDFEFE"/>
<path id="path258" d="M633.787 411.832C633.724 413.461 635.321 414.82 637.355 414.87C639.389 414.92 641.088 413.642 641.151 412.016C641.214 410.39 639.616 409.028 637.583 408.978C635.549 408.928 633.85 410.206 633.787 411.832Z" fill="#FDFEFE"/>
<path id="path260" d="M617.577 399.329C617.526 400.55 618.805 401.57 620.431 401.608C622.058 401.646 623.418 400.686 623.468 399.468C623.519 398.247 622.24 397.227 620.613 397.189C618.986 397.151 617.627 398.111 617.577 399.329Z" fill="#FDFEFE"/>
<path id="path262" d="M586.631 418.488C586.593 419.708 587.552 420.728 588.772 420.765C589.992 420.801 591.012 419.843 591.049 418.623C591.087 417.403 590.129 416.383 588.908 416.346C587.688 416.309 586.669 417.268 586.631 418.488Z" fill="#FDFEFE"/>
<path id="path264" d="M567.474 396.383C567.449 397.603 568.088 398.621 568.901 398.661C569.715 398.697 570.394 397.74 570.419 396.52C570.445 395.299 569.806 394.278 568.992 394.242C568.179 394.203 567.499 395.162 567.474 396.383Z" fill="#FDFEFE"/>
<path id="path266" d="M512.952 414.736C512.877 417.178 514.794 419.215 517.234 419.29C519.675 419.365 521.714 417.449 521.789 415.007C521.865 412.568 519.947 410.528 517.507 410.453C515.067 410.377 513.027 412.294 512.952 414.736Z" fill="#FDFEFE"/>
<path id="path268" d="M493.794 400.046C493.757 401.671 494.715 403.03 495.935 403.081C497.155 403.132 498.175 401.852 498.213 400.228C498.251 398.6 497.292 397.24 496.072 397.189C494.852 397.142 493.832 398.418 493.794 400.046Z" fill="#FDFEFE"/>
<path id="path270" d="M527.687 401.516C527.637 403.144 528.915 404.504 530.542 404.555C532.169 404.605 533.528 403.326 533.579 401.701C533.629 400.073 532.351 398.714 530.724 398.663C529.097 398.612 527.738 399.892 527.687 401.516Z" fill="#FDFEFE"/>
<path id="path272" d="M446.639 392.72C446.614 393.536 447.253 394.213 448.067 394.24C448.88 394.265 449.56 393.625 449.585 392.812C449.609 391.999 448.97 391.319 448.156 391.294C447.343 391.267 446.663 391.906 446.639 392.72Z" fill="#FDFEFE"/>
<path id="path274" d="M456.954 404.509C456.929 405.322 457.567 406.004 458.38 406.029C459.196 406.054 459.874 405.416 459.9 404.6C459.925 403.787 459.287 403.109 458.47 403.083C457.658 403.058 456.979 403.696 456.954 404.509Z" fill="#FDFEFE"/>
<path id="path276" d="M427.482 394.148C427.444 395.776 428.402 397.136 429.624 397.187C430.843 397.237 431.863 395.957 431.901 394.333C431.939 392.705 430.981 391.346 429.76 391.295C428.538 391.244 427.518 392.524 427.482 394.148Z" fill="#FDFEFE"/>
<path id="path278" d="M423.063 413.259C422.988 415.701 424.904 417.741 427.346 417.816C429.784 417.891 431.825 415.975 431.9 413.533C431.975 411.091 430.059 409.054 427.617 408.979C425.178 408.901 423.138 410.82 423.063 413.259Z" fill="#FDFEFE"/>
<path id="path280" d="M389.169 393.435C389.122 394.656 390.398 395.675 392.026 395.714C393.65 395.749 395.01 394.792 395.061 393.571C395.111 392.353 393.832 391.333 392.207 391.295C390.579 391.257 389.22 392.217 389.169 393.435Z" fill="#FDFEFE"/>
<path id="path282" d="M367.065 405.894C367.005 408.334 368.601 410.372 370.634 410.448C372.668 410.524 374.366 408.606 374.43 406.166C374.493 403.725 372.895 401.687 370.861 401.611C368.827 401.538 367.129 403.453 367.065 405.894Z" fill="#FDFEFE"/>
<path id="path284" d="M325.805 390.489C325.754 391.711 327.034 392.731 328.658 392.766C330.286 392.804 331.645 391.847 331.696 390.625C331.743 389.406 330.467 388.386 328.839 388.348C327.215 388.31 325.855 389.27 325.805 390.489Z" fill="#FDFEFE"/>
<path id="path286" d="M336.119 400.09C336.083 400.904 337.041 401.584 338.259 401.608C339.478 401.633 340.497 400.993 340.538 400.18C340.575 399.367 339.617 398.687 338.398 398.662C337.179 398.638 336.16 399.277 336.119 400.09Z" fill="#FDFEFE"/>
<path id="path288" d="M303.7 389.729C303.662 391.358 304.622 392.719 305.84 392.766C307.061 392.817 308.081 391.54 308.119 389.911C308.157 388.286 307.197 386.925 305.979 386.874C304.758 386.824 303.738 388.101 303.7 389.729Z" fill="#FDFEFE"/>
<path id="path290" d="M305.173 404.509C305.16 405.325 305.48 406.004 305.888 406.029C306.294 406.054 306.635 405.416 306.646 404.603C306.659 403.787 306.339 403.109 305.933 403.083C305.527 403.058 305.186 403.696 305.173 404.509Z" fill="#FDFEFE"/>
<g id="g292">
<path id="path294" d="M228.312 390.728C228.276 391.985 229.261 393.036 230.522 393.076C231.78 393.112 232.83 392.127 232.87 390.869C232.91 389.608 231.922 388.561 230.66 388.518C229.403 388.478 228.352 389.47 228.312 390.728Z" fill="#FDFEFE"/>
</g>
<g id="g296">
<path id="path298" d="M211.519 402.976C211.463 404.737 212.849 406.213 214.61 406.266C216.37 406.318 217.843 404.935 217.899 403.174C217.952 401.414 216.569 399.941 214.808 399.889C213.044 399.829 211.575 401.216 211.519 402.976Z" fill="#FDFEFE"/>
</g>
<g id="g300">
<path id="path302" d="M187.609 379.898C187.578 380.904 188.371 381.743 189.377 381.774C190.383 381.805 191.222 381.012 191.253 380.006C191.284 379 190.491 378.161 189.485 378.13C188.479 378.099 187.64 378.892 187.609 379.898Z" fill="#FDFEFE"/>
</g>
<g id="g304">
<path id="path306" d="M164.94 405.192C164.868 407.453 166.646 409.348 168.912 409.417C171.173 409.485 173.068 407.707 173.14 405.441C173.209 403.176 171.43 401.285 169.165 401.216C166.9 401.144 165.009 402.926 164.94 405.192Z" fill="#FDFEFE"/>
</g>
<g id="g308">
<path id="path310" d="M157.245 388.537C157.188 390.296 158.576 391.766 160.335 391.823C162.093 391.875 163.567 390.495 163.624 388.729C163.677 386.97 162.293 385.496 160.53 385.444C158.772 385.391 157.298 386.771 157.245 388.537Z" fill="#FDFEFE"/>
</g>
</g>
<g id="floor1">
<g id="g312">
<path id="path314" d="M105.142 802.172L719.725 795.189C722.682 795.155 725.052 792.729 725.018 789.771L721.476 478.065C721.443 475.108 719.019 472.739 716.062 472.77L101.475 479.754C98.5188 479.789 96.1494 482.212 96.185 485.17L99.7279 796.878C99.759 799.833 102.182 802.206 105.142 802.172Z" fill="#D3AB72"/>
</g>
<g id="g316">
<path id="path318" d="M104.956 785.887L719.541 778.904C722.498 778.87 724.867 776.447 724.834 773.488L721.477 478.064C721.443 475.108 719.019 472.739 716.062 472.77L101.475 479.754C98.5189 479.789 96.1496 482.212 96.1852 485.17L99.5414 780.593C99.5769 783.551 102 785.921 104.956 785.887Z" fill="#E4C28A"/>
</g>
<g id="g320">
<path id="path322" d="M96.4375 732.242L730.094 725.041C730.483 725.037 730.793 724.717 730.789 724.33L730.268 678.513C730.264 678.127 729.946 677.814 729.558 677.817L95.8989 685.019C95.5117 685.022 95.2001 685.342 95.209 685.729L95.7253 731.546C95.7298 731.936 96.0502 732.246 96.4375 732.242Z" fill="#ED7FA4"/>
</g>
<g id="g324">
<path id="path326" d="M719.825 619.3C681.121 658.894 689.478 528.444 614.573 529.295C539.669 530.147 602.952 653.199 521.534 654.125C440.116 655.05 490.744 524.19 435.38 524.819C380.016 525.449 453.254 664.672 345.783 665.894C238.309 667.115 314.951 532.701 259.589 533.331C204.226 533.959 271.688 738.395 229.426 745.388C187.163 752.381 220.509 533.775 165.146 534.404C109.779 535.033 127.101 626.037 101.049 626.333C74.9926 626.629 40.5747 464.161 144.752 459.722C248.93 455.28 626.675 447.732 688.552 447.028C750.431 446.325 761.681 576.481 719.825 619.3Z" fill="#FDFEFE"/>
</g>
<path id="path328" d="M627.891 602.832C627.932 606.491 630.935 609.43 634.597 609.385C638.259 609.344 641.194 606.343 641.152 602.68C641.111 599.018 638.108 596.083 634.446 596.124C630.784 596.165 627.849 599.166 627.891 602.832Z" fill="#D3AB72"/>
<path id="path330" d="M679.466 638.165C679.49 640.198 681.158 641.828 683.192 641.805C685.226 641.782 686.857 640.114 686.834 638.081C686.811 636.044 685.143 634.414 683.108 634.437C681.074 634.46 679.443 636.128 679.466 638.165Z" fill="#D3AB72"/>
<path id="path332" d="M649.995 647.019C650.022 649.868 652.024 652.152 654.465 652.12C656.907 652.084 658.864 649.751 658.836 646.906C658.808 644.057 656.806 641.773 654.365 641.805C651.923 641.841 649.967 644.174 649.995 647.019Z" fill="#D3AB72"/>
<path id="path334" d="M644.1 747.971C644.137 751.227 646.806 753.835 650.061 753.798C653.317 753.762 655.925 751.094 655.888 747.838C655.851 744.582 653.182 741.974 649.927 742.01C646.672 742.047 644.063 744.715 644.1 747.971Z" fill="#D3AB72"/>
<path id="path336" d="M613.155 752.359C613.178 753.985 614.846 755.29 616.88 755.272C618.915 755.254 620.545 753.92 620.522 752.291C620.499 750.665 618.831 749.36 616.797 749.378C614.762 749.396 613.132 750.73 613.155 752.359Z" fill="#D3AB72"/>
<path id="path338" d="M579.262 648.495C579.294 651.345 581.629 653.629 584.478 653.593C587.326 653.561 589.609 651.227 589.576 648.377C589.544 645.531 587.209 643.247 584.361 643.279C581.512 643.311 579.23 645.646 579.262 648.495Z" fill="#D3AB72"/>
<path id="path340" d="M454.006 631.523C454.024 633.149 455.359 634.455 456.988 634.437C458.615 634.419 459.918 633.082 459.9 631.456C459.882 629.828 458.548 628.525 456.921 628.543C455.292 628.561 453.988 629.895 454.006 631.523Z" fill="#D3AB72"/>
<path id="path342" d="M464.321 650.681C464.34 652.307 465.677 653.612 467.303 653.594C468.929 653.575 470.234 652.242 470.215 650.612C470.197 648.986 468.863 647.681 467.237 647.7C465.608 647.718 464.303 649.052 464.321 650.681Z" fill="#D3AB72"/>
<path id="path344" d="M431.902 576.288C431.934 579.134 434.269 581.419 437.118 581.387C439.968 581.355 442.249 579.017 442.217 576.171C442.185 573.322 439.851 571.041 437.001 571.073C434.152 571.105 431.87 573.439 431.902 576.288Z" fill="#D3AB72"/>
<path id="path346" d="M406.851 641.889C406.897 645.958 410.235 649.218 414.303 649.172C418.372 649.127 421.632 645.789 421.586 641.721C421.537 637.652 418.203 634.392 414.135 634.437C410.066 634.487 406.806 637.821 406.851 641.889Z" fill="#D3AB72"/>
<path id="path348" d="M459.901 752.391C459.946 755.647 462.946 758.255 466.608 758.219C470.27 758.182 473.203 755.511 473.162 752.258C473.121 749.002 470.117 746.394 466.455 746.431C462.797 746.467 459.86 749.135 459.901 752.391Z" fill="#D3AB72"/>
<path id="path350" d="M428.955 749.429C428.983 751.869 430.984 753.829 433.427 753.798C435.867 753.771 437.824 751.769 437.796 749.33C437.769 746.886 435.767 744.93 433.324 744.957C430.884 744.985 428.928 746.986 428.955 749.429Z" fill="#D3AB72"/>
<g id="g352">
<path id="path354" d="M267.558 756.897C267.616 761.693 271.546 765.537 276.342 765.483C281.138 765.429 284.983 761.495 284.925 756.699C284.871 751.903 280.941 748.06 276.145 748.114C271.346 748.168 267.504 752.102 267.558 756.897Z" fill="#D3AB72"/>
</g>
<g id="g356">
<path id="path358" d="M236.146 763.224C236.167 765.324 237.889 767.007 239.987 766.98C242.085 766.956 243.767 765.237 243.742 763.14C243.721 761.04 241.999 759.358 239.901 759.381C237.803 759.405 236.121 761.128 236.146 763.224Z" fill="#D3AB72"/>
</g>
<path id="path360" d="M561.579 752.374C561.607 754.817 563.608 756.773 566.05 756.745C568.491 756.714 570.448 754.714 570.42 752.275C570.392 749.833 568.39 747.877 565.949 747.904C563.508 747.932 561.551 749.932 561.579 752.374Z" fill="#D3AB72"/>
<path id="path362" d="M540.948 739.093C540.967 740.723 542.301 742.028 543.929 742.009C545.557 741.991 546.861 740.657 546.842 739.028C546.824 737.402 545.489 736.097 543.862 736.115C542.234 736.134 540.93 737.467 540.948 739.093Z" fill="#D3AB72"/>
<g id="g364">
<path id="path366" d="M269.74 662.413C269.787 666.609 273.229 669.975 277.427 669.928C281.623 669.88 284.986 666.438 284.939 662.241C284.892 658.045 281.45 654.682 277.252 654.729C273.056 654.776 269.692 658.216 269.74 662.413Z" fill="#D3AB72"/>
</g>
<g id="g368">
<path id="path370" d="M262.885 632.092C262.912 634.491 264.877 636.413 267.276 636.386C269.675 636.359 271.599 634.394 271.571 631.994C271.544 629.598 269.576 627.673 267.18 627.703C264.777 627.73 262.857 629.696 262.885 632.092Z" fill="#D3AB72"/>
</g>
<g id="g372">
<path id="path374" d="M257.884 574.065C257.909 576.161 259.628 577.847 261.728 577.822C263.824 577.798 265.506 576.075 265.481 573.979C265.461 571.883 263.738 570.198 261.638 570.222C259.538 570.246 257.86 571.966 257.884 574.065Z" fill="#D3AB72"/>
</g>
<g id="g376">
<path id="path378" d="M245.145 599.723C245.17 602.122 247.137 604.044 249.535 604.017C251.936 603.99 253.857 602.021 253.829 599.625C253.804 597.226 251.834 595.304 249.439 595.331C247.038 595.358 245.117 597.323 245.145 599.723Z" fill="#D3AB72"/>
</g>
<g id="g380">
<path id="path382" d="M175.588 593.457C175.612 595.553 177.33 597.236 179.432 597.213C181.529 597.189 183.211 595.47 183.188 593.369C183.164 591.273 181.442 589.59 179.344 589.614C177.243 589.637 175.564 591.357 175.588 593.457Z" fill="#D3AB72"/>
</g>
<g id="g384">
<path id="path386" d="M162.932 626.172C162.976 630.069 166.173 633.192 170.067 633.148C173.962 633.105 177.09 629.907 177.041 626.01C176.997 622.113 173.804 618.99 169.906 619.034C166.011 619.081 162.887 622.275 162.932 626.172Z" fill="#D3AB72"/>
</g>
<g id="g388">
<path id="path390" d="M139.234 642.727C139.255 644.225 140.484 645.426 141.981 645.409C143.478 645.393 144.678 644.164 144.661 642.666C144.644 641.165 143.419 639.964 141.918 639.984C140.417 640.001 139.217 641.229 139.234 642.727Z" fill="#D3AB72"/>
</g>
<g id="g392">
<path id="path394" d="M141.946 594.923C141.967 597.023 143.687 598.702 145.79 598.679C147.885 598.655 149.567 596.935 149.542 594.835C149.522 592.739 147.802 591.056 145.703 591.08C143.604 591.103 141.921 592.826 141.946 594.923Z" fill="#D3AB72"/>
</g>
<g id="g396">
<path id="path398" d="M178.47 751.396C178.49 753.193 179.963 754.636 181.76 754.616C183.561 754.596 185.003 753.119 184.983 751.322C184.964 749.524 183.49 748.081 181.689 748.101C179.892 748.121 178.45 749.599 178.47 751.396Z" fill="#D3AB72"/>
</g>
<g id="g400">
<path id="path402" d="M153.477 750.049C153.489 750.951 154.226 751.671 155.123 751.661C156.027 751.651 156.748 750.914 156.735 750.011C156.727 749.113 155.99 748.393 155.086 748.403C154.189 748.413 153.469 749.15 153.477 750.049Z" fill="#D3AB72"/>
</g>
<g id="g404">
<path id="path406" d="M161.265 766.246C161.273 767.148 162.009 767.868 162.908 767.858C163.81 767.848 164.53 767.111 164.522 766.209C164.51 765.311 163.773 764.59 162.871 764.601C161.973 764.611 161.253 765.348 161.265 766.246Z" fill="#D3AB72"/>
</g>
<path id="path408" d="M697.15 691.213C697.173 693.249 698.841 694.877 700.875 694.854C702.91 694.831 704.54 693.164 704.517 691.128C704.494 689.095 702.826 687.464 700.792 687.487C698.757 687.51 697.126 689.18 697.15 691.213Z" fill="#FDFEFE"/>
<path id="path410" d="M676.519 705.949C676.542 707.982 678.21 709.613 680.245 709.59C682.279 709.567 683.91 707.9 683.887 705.864C683.864 703.831 682.196 702.2 680.161 702.223C678.126 702.246 676.496 703.913 676.519 705.949Z" fill="#FDFEFE"/>
<path id="path412" d="M657.362 693.416C657.381 695.043 658.715 696.346 660.343 696.328C661.971 696.31 663.275 694.976 663.256 693.349C663.238 691.719 661.904 690.416 660.276 690.434C658.648 690.452 657.344 691.786 657.362 693.416Z" fill="#FDFEFE"/>
<path id="path414" d="M620.523 717.721C620.536 718.94 621.537 719.919 622.758 719.906C623.979 719.892 624.957 718.889 624.943 717.67C624.929 716.451 623.929 715.471 622.708 715.485C621.487 715.499 620.509 716.502 620.523 717.721Z" fill="#FDFEFE"/>
<path id="path416" d="M595.471 690.467C595.485 692.097 596.486 693.399 597.707 693.381C598.927 693.362 599.906 692.028 599.892 690.401C599.878 688.77 598.877 687.465 597.656 687.487C596.436 687.505 595.457 688.84 595.471 690.467Z" fill="#FDFEFE"/>
<path id="path418" d="M532.107 715.554C532.139 718.806 534.475 721.415 537.323 721.379C540.171 721.342 542.454 718.675 542.421 715.419C542.389 712.163 540.054 709.554 537.205 709.591C534.357 709.631 532.074 712.298 532.107 715.554Z" fill="#FDFEFE"/>
<path id="path420" d="M507.056 700.056C507.079 702.089 508.747 703.719 510.782 703.696C512.816 703.673 514.447 702.005 514.423 699.972C514.4 697.935 512.732 696.305 510.698 696.328C508.663 696.351 507.033 698.019 507.056 700.056Z" fill="#FDFEFE"/>
<path id="path422" d="M549.79 699.307C549.808 700.937 551.143 702.24 552.771 702.222C554.398 702.204 555.703 700.87 555.684 699.24C555.665 697.614 554.331 696.31 552.704 696.328C551.076 696.346 549.771 697.681 549.79 699.307Z" fill="#FDFEFE"/>
<path id="path424" d="M451.059 692.668C451.073 693.891 452.073 694.868 453.297 694.854C454.516 694.841 455.493 693.84 455.479 692.62C455.466 691.397 454.465 690.42 453.245 690.434C452.025 690.448 451.045 691.448 451.059 692.668Z" fill="#FDFEFE"/>
<path id="path426" d="M464.321 706.658C464.33 707.474 464.998 708.126 465.811 708.117C466.625 708.107 467.277 707.441 467.268 706.625C467.259 705.812 466.592 705.16 465.778 705.17C464.964 705.179 464.312 705.845 464.321 706.658Z" fill="#FDFEFE"/>
<path id="path428" d="M428.955 694.886C428.976 696.516 430.31 697.82 431.936 697.801C433.564 697.783 434.867 696.449 434.849 694.819C434.831 693.193 433.497 691.889 431.869 691.907C430.243 691.926 428.937 693.26 428.955 694.886Z" fill="#FDFEFE"/>
<path id="path430" d="M424.534 719.23C424.566 722.075 426.9 724.358 429.749 724.326C432.598 724.294 434.881 721.96 434.849 719.111C434.814 716.262 432.48 713.98 429.631 714.012C426.785 714.047 424.502 716.381 424.534 719.23Z" fill="#FDFEFE"/>
<path id="path432" d="M383.274 697.105C383.296 699.142 384.964 700.772 387.001 700.749C389.034 700.726 390.664 699.058 390.641 697.021C390.618 694.988 388.951 693.355 386.917 693.381C384.88 693.404 383.251 695.072 383.274 697.105Z" fill="#FDFEFE"/>
<path id="path434" d="M356.749 713.333C356.781 716.183 359.115 718.464 361.965 718.432C364.811 718.4 367.095 716.065 367.063 713.216C367.031 710.37 364.697 708.085 361.848 708.117C358.998 708.149 356.717 710.483 356.749 713.333Z" fill="#FDFEFE"/>
<path id="path436" d="M308.12 696.36C308.138 697.99 309.475 699.293 311.101 699.275C312.729 699.257 314.032 697.923 314.014 696.293C313.996 694.667 312.662 693.36 311.034 693.381C309.408 693.399 308.102 694.734 308.12 696.36Z" fill="#FDFEFE"/>
<path id="path438" d="M321.382 707.404C321.396 708.624 322.397 709.604 323.617 709.59C324.84 709.577 325.817 708.576 325.803 707.353C325.789 706.133 324.789 705.153 323.569 705.17C322.345 705.184 321.369 706.184 321.382 707.404Z" fill="#FDFEFE"/>
<path id="path440" d="M281.595 697.107C281.614 699.139 282.947 700.771 284.576 700.749C286.202 700.726 287.508 699.055 287.489 697.023C287.468 694.987 286.135 693.358 284.509 693.381C282.88 693.404 281.577 695.071 281.595 697.107Z" fill="#FDFEFE"/>
<path id="path442" d="M283.069 714.026C283.083 714.842 284.083 715.494 285.302 715.485C286.526 715.476 287.503 714.809 287.489 713.993C287.476 713.18 286.476 712.529 285.252 712.538C284.032 712.547 283.055 713.214 283.069 714.026Z" fill="#FDFEFE"/>
<g id="g444">
<path id="path446" d="M192.015 701.843C192.034 703.34 193.265 704.541 194.761 704.525C196.262 704.508 197.462 703.28 197.446 701.779C197.427 700.281 196.2 699.08 194.704 699.097C193.199 699.113 192 700.342 192.015 701.843Z" fill="#FDFEFE"/>
</g>
<g id="g448">
<path id="path450" d="M172.649 717.259C172.672 719.359 174.394 721.042 176.493 721.018C178.593 720.995 180.275 719.272 180.247 717.175C180.223 715.075 178.505 713.396 176.406 713.419C174.307 713.443 172.625 715.163 172.649 717.259Z" fill="#FDFEFE"/>
</g>
<g id="g452">
<path id="path454" d="M143.036 690.996C143.049 692.197 144.034 693.157 145.236 693.143C146.433 693.13 147.394 692.147 147.381 690.949C147.365 689.747 146.383 688.788 145.186 688.802C143.984 688.815 143.024 689.798 143.036 690.996Z" fill="#FDFEFE"/>
</g>
<g id="g456">
<path id="path458" d="M117.338 722.234C117.368 724.93 119.577 727.094 122.279 727.064C124.976 727.033 127.138 724.819 127.108 722.123C127.078 719.424 124.868 717.26 122.167 717.294C119.47 717.324 117.307 719.535 117.338 722.234Z" fill="#FDFEFE"/>
</g>
<g id="g460">
<path id="path462" d="M107.34 702.801C107.366 704.901 109.086 706.584 111.187 706.561C113.284 706.533 114.964 704.814 114.943 702.717C114.916 700.617 113.196 698.938 111.1 698.961C108.999 698.985 107.318 700.704 107.34 702.801Z" fill="#FDFEFE"/>
</g>
</g>
</g>
</g>
</svg>
